<?xml version="1.0" encoding="utf-8"?><svg version="1.1" preserveAspectRatio="xMidYMid" xml:space="preserve" width="659.33939pt" height="375.203127pt" viewBox="11.42971 0.7079730000000008 659.33939 375.203127" xmlns="http://www.w3.org/2000/svg" xmlns:xlink="http://www.w3.org/1999/xlink"><g transform="matrix(1 0 0 -1 0 841)"><g stroke="#000000" fill="none" fill-rule="evenodd" stroke-width="1" stroke-linecap="round" stroke-linejoin="round" stroke-miterlimit="3" letter-spacing="normal" font-weight="normal" font-style="normal" baseline-shift="0"><g transform="matrix(0.375 0 0 0.375 0 841.650024)"><g transform="matrix(1.918984 0 0 -1.919589 0 0)" font-family="CalibriUnicode" font-size="6"><path d="M41 126V365m0 0H263m0 0V126m0 0H41" /><text transform="matrix(1 0 0 1 128 130)" fill="#000000" stroke="none"><tspan dx="0 " x="0" y="6">C</tspan><tspan dx="0 " x="3.75" y="6">h</tspan><tspan dx="0 " x="7.5" y="6">a</tspan><tspan dx="0 " x="10.75" y="6">r</tspan><tspan dx="0 " x="13" y="6">a</tspan><tspan dx="0 " x="16.25" y="6">c</tspan><tspan dx="0 " x="19" y="6">t</tspan><tspan dx="0 " x="21.25" y="6">e</tspan><tspan dx="0 " x="24.75" y="6">r</tspan><tspan dx="0 " x="27" y="6">A</tspan><tspan dx="0 0 " x="31" y="6">tt</tspan><tspan dx="0 " x="35.5" y="6">r</tspan><tspan dx="0 " x="37.75" y="6">i</tspan><tspan dx="0 " x="39.5" y="6">b</tspan><tspan dx="0 " x="43.25" y="6">u</tspan><tspan dx="0 " x="47" y="6">t</tspan><tspan dx="0 " x="49.25" y="6">e</tspan><tspan dx="0 " x="52.75" y="6">s</tspan></text><path d="M27 13V511m0 0H276m0 0V13m0 0H27" /><text transform="matrix(1 0 0 1 140 17)" fill="#000000" stroke="none"><tspan dx="0 " x="0" y="6">A</tspan><tspan dx="0 0 " x="4" y="6">tt</tspan><tspan dx="0 " x="8.5" y="6">r</tspan><tspan dx="0 " x="10.75" y="6">i</tspan><tspan dx="0 " x="12.5" y="6">b</tspan><tspan dx="0 " x="16.25" y="6">u</tspan><tspan dx="0 " x="20" y="6">t</tspan><tspan dx="0 " x="22.25" y="6">e</tspan><tspan dx="0 " x="25.75" y="6">s</tspan></text><path d="M327 13V512m0 0H517m0 0V13m0 0H327" /><text transform="matrix(1 0 0 1 405 17)" fill="#000000" stroke="none"><tspan dx="0 " x="0" y="6">Game objects</tspan></text><path d="M543 13V512m0 0H921m0 0V13m0 0H543" /><text transform="matrix(1 0 0 1 717 17)" fill="#000000" stroke="none"><tspan dx="0 " x="0" y="6">Components</tspan></text><path fill="#DFDFDF" stroke="none" d="M379 44C379 39 379 39 384 39h79C468 39 468 39 468 44V62C468 67 468 67 463 67H384C379 67 379 67 379 62V44" /><path fill="#FEFAF7" stroke="none" d="M376 41C376 36 376 36 381 36h79C465 36 465 36 465 41V59C465 64 465 64 460 64H381C376 64 376 64 376 59V41" /><path d="M376 41C376 36 376 36 381 36h79C465 36 465 36 465 41V59C465 64 465 64 460 64H381C376 64 376 64 376 59V41m0 0C376 36 376 36 381 36h79C465 36 465 36 465 41V59C465 64 465 64 460 64H381C376 64 376 64 376 59V41" /><rect x="376" y="36" width="89" height="28" /><text transform="matrix(1 0 0 1 413 45)" fill="#000000" font-weight="bold" stroke="none"><tspan dx="0 " x="0" y="6">Stage</tspan></text><path fill="#DFDFDF" stroke="none" d="M379 238C379 233 379 233 384 233h79C468 233 468 233 468 238v18C468 261 468 261 463 261H384C379 261 379 261 379 256V238" /><path fill="#FEFAF7" stroke="none" d="M376 235C376 230 376 230 381 230h79C465 230 465 230 465 235v18C465 258 465 258 460 258H381C376 258 376 258 376 253V235" /><path d="M376 235C376 230 376 230 381 230h79C465 230 465 230 465 235v18C465 258 465 258 460 258H381C376 258 376 258 376 253V235m0 0C376 230 376 230 381 230h79C465 230 465 230 465 235v18C465 258 465 258 460 258H381C376 258 376 258 376 253V235" /><rect x="376" y="230" width="89" height="28" /><text transform="matrix(1 0 0 1 412 239)" fill="#000000" font-weight="bold" stroke="none"><tspan dx="0 " x="0" y="6">Enemy</tspan></text><path fill="#DFDFDF" stroke="none" d="M379 141C379 136 379 136 384 136h79C468 136 468 136 468 141v18C468 164 468 164 463 164H384C379 164 379 164 379 159V141" /><path fill="#FEFAF7" stroke="none" d="M376 138C376 133 376 133 381 133h79C465 133 465 133 465 138v18C465 161 465 161 460 161H381C376 161 376 161 376 156V138" /><path d="M376 138C376 133 376 133 381 133h79C465 133 465 133 465 138v18C465 161 465 161 460 161H381C376 161 376 161 376 156V138m0 0C376 133 376 133 381 133h79C465 133 465 133 465 138v18C465 161 465 161 460 161H381C376 161 376 161 376 156V138" /><rect x="376" y="133" width="89" height="28" /><text transform="matrix(1 0 0 1 413 142)" fill="#000000" font-weight="bold" stroke="none"><tspan dx="0 " x="0" y="6">Player</tspan></text><path fill="#DFDFDF" stroke="none" d="M379 349C379 344 379 344 384 344h79C468 344 468 344 468 349v18C468 372 468 372 463 372H384C379 372 379 372 379 367V349" /><path fill="#FEFAF7" stroke="none" d="M376 346C376 341 376 341 381 341h79C465 341 465 341 465 346v18C465 369 465 369 460 369H381C376 369 376 369 376 364V346" /><path d="M376 346C376 341 376 341 381 341h79C465 341 465 341 465 346v18C465 369 465 369 460 369H381C376 369 376 369 376 364V346m0 0C376 341 376 341 381 341h79C465 341 465 341 465 346v18C465 369 465 369 460 369H381C376 369 376 369 376 364V346" /><rect x="376" y="341" width="89" height="28" /><text transform="matrix(1 0 0 1 415 350)" fill="#000000" font-weight="bold" stroke="none"><tspan dx="0 " x="0" y="6">Wall</tspan></text><path fill="#DFDFDF" stroke="none" d="M379 304C379 299 379 299 384 299h79C468 299 468 299 468 304v18C468 327 468 327 463 327H384C379 327 379 327 379 322V304" /><path fill="#FEFAF7" stroke="none" d="M376 301C376 296 376 296 381 296h79C465 296 465 296 465 301v18C465 324 465 324 460 324H381C376 324 376 324 376 319V301" /><path d="M376 301C376 296 376 296 381 296h79C465 296 465 296 465 301v18C465 324 465 324 460 324H381C376 324 376 324 376 319V301m0 0C376 296 376 296 381 296h79C465 296 465 296 465 301v18C465 324 465 324 460 324H381C376 324 376 324 376 319V301" /><rect x="376" y="296" width="89" height="28" /><text transform="matrix(1 0 0 1 409 305)" fill="#000000" font-weight="bold" stroke="none"><tspan dx="0 " x="0" y="6">P</tspan><tspan dx="0 " x="3.5" y="6">r</tspan><tspan dx="0 " x="5.5" y="6">o</tspan><tspan dx="0 " x="9" y="6">j</tspan><tspan dx="0 " x="10.5" y="6">e</tspan><tspan dx="0 " x="13.5" y="6">c</tspan><tspan dx="0 0 " x="16" y="6">ti</tspan><tspan dx="0 " x="19.5" y="6">l</tspan><tspan dx="0 " x="21" y="6">e</tspan></text><path fill="#DFDFDF" stroke="none" d="M379 393C379 388 379 388 384 388h79C468 388 468 388 468 393v18C468 416 468 416 463 416H384C379 416 379 416 379 411V393" /><path fill="#FEFAF7" stroke="none" d="M376 390C376 385 376 385 381 385h79C465 385 465 385 465 390v18C465 413 465 413 460 413H381C376 413 376 413 376 408V390" /><path d="M376 390C376 385 376 385 381 385h79C465 385 465 385 465 390v18C465 413 465 413 460 413H381C376 413 376 413 376 408V390m0 0C376 385 376 385 381 385h79C465 385 465 385 465 390v18C465 413 465 413 460 413H381C376 413 376 413 376 408V390" /><rect x="376" y="385" width="89" height="28" /><text transform="matrix(1 0 0 1 414 394)" fill="#000000" font-weight="bold" stroke="none"><tspan dx="0 " x="0" y="6">Door</tspan></text><path fill="#DFDFDF" stroke="none" d="M128 48C128 43 128 43 133 43h79C217 43 217 43 217 48V66C217 71 217 71 212 71H133C128 71 128 71 128 66V48" /><path fill="#FEFAF7" stroke="none" d="M125 45C125 40 125 40 130 40h79C214 40 214 40 214 45V63C214 68 214 68 209 68H130C125 68 125 68 125 63V45" /><path d="M125 45C125 40 125 40 130 40h79C214 40 214 40 214 45V63C214 68 214 68 209 68H130C125 68 125 68 125 63V45m0 0C125 40 125 40 130 40h79C214 40 214 40 214 45V63C214 68 214 68 209 68H130C125 68 125 68 125 63V45" /><rect x="125" y="40" width="89" height="28" /><text transform="matrix(1 0 0 1 160 49)" fill="#000000" font-weight="bold" stroke="none"><tspan dx="0 " x="0" y="6">Factory</tspan></text><path fill="#DFDFDF" stroke="none" d="M128 93C128 88 128 88 133 88h79C217 88 217 88 217 93v18C217 116 217 116 212 116H133C128 116 128 116 128 111V93" /><path fill="#FEFAF7" stroke="none" d="M125 90C125 85 125 85 130 85h79C214 85 214 85 214 90v18C214 113 214 113 209 113H130C125 113 125 113 125 108V90" /><path d="M125 90C125 85 125 85 130 85h79C214 85 214 85 214 90v18C214 113 214 113 209 113H130C125 113 125 113 125 108V90m0 0C125 85 125 85 130 85h79C214 85 214 85 214 90v18C214 113 214 113 209 113H130C125 113 125 113 125 108V90" /><rect x="125" y="85" width="89" height="28" /><text transform="matrix(1 0 0 1 154 94)" fill="#000000" font-weight="bold" stroke="none"><tspan dx="0 " x="0" y="6">GameModel</tspan></text><path fill="#DFDFDF" stroke="none" d="M581 32C581 27 581 27 586 27h79C670 27 670 27 670 32V50C670 55 670 55 665 55H586C581 55 581 55 581 50V32" /><path fill="#FEFAF7" stroke="none" d="M578 29C578 24 578 24 583 24h79C667 24 667 24 667 29V47C667 52 667 52 662 52H583C578 52 578 52 578 47V29" /><path d="M578 29C578 24 578 24 583 24h79C667 24 667 24 667 29V47C667 52 667 52 662 52H583C578 52 578 52 578 47V29m0 0C578 24 578 24 583 24h79C667 24 667 24 667 29V47C667 52 667 52 662 52H583C578 52 578 52 578 47V29" /><rect x="578" y="24" width="89" height="28" /><text transform="matrix(1 0 0 1 615 33)" fill="#000000" font-weight="bold" stroke="none"><tspan dx="0 " x="0" y="6">Sound</tspan></text><path fill="#DFDFDF" stroke="none" d="M581 80C581 75 581 75 586 75h79C670 75 670 75 670 80V98C670 103 670 103 665 103H586C581 103 581 103 581 98V80" /><path fill="#FEFAF7" stroke="none" d="M578 77C578 72 578 72 583 72h79C667 72 667 72 667 77V95C667 100 667 100 662 100H583C578 100 578 100 578 95V77" /><path d="M578 77C578 72 578 72 583 72h79C667 72 667 72 667 77V95C667 100 667 100 662 100H583C578 100 578 100 578 95V77m0 0C578 72 578 72 583 72h79C667 72 667 72 667 77V95C667 100 667 100 662 100H583C578 100 578 100 578 95V77" /><rect x="578" y="72" width="89" height="28" /><text transform="matrix(1 0 0 1 601 81)" fill="#000000" font-weight="bold" stroke="none"><tspan dx="0 " x="0" y="6">CollisionManager</tspan></text><path fill="#DFDFDF" stroke="none" d="M771 41C771 36 771 36 776 36h79C860 36 860 36 860 41V59C860 64 860 64 855 64H776C771 64 771 64 771 59V41" /><path fill="#FEFAF7" stroke="none" d="M768 38C768 33 768 33 773 33h79C857 33 857 33 857 38V56C857 61 857 61 852 61H773C768 61 768 61 768 56V38" /><path d="M768 38C768 33 768 33 773 33h79C857 33 857 33 857 38V56C857 61 857 61 852 61H773C768 61 768 61 768 56V38m0 0C768 33 768 33 773 33h79C857 33 857 33 857 38V56C857 61 857 61 852 61H773C768 61 768 61 768 56V38" /><rect x="768" y="33" width="89" height="28" /><text transform="matrix(1 0 0 1 795 42)" fill="#000000" font-weight="bold" stroke="none"><tspan dx="0 " x="0" y="6">DeathChecker</tspan></text><path fill="#DFDFDF" stroke="none" d="M771 86C771 81 771 81 776 81h79C860 81 860 81 860 86v18C860 109 860 109 855 109H776C771 109 771 109 771 104V86" /><path fill="#FEFAF7" stroke="none" d="M768 83C768 78 768 78 773 78h79C857 78 857 78 857 83v18C857 106 857 106 852 106H773C768 106 768 106 768 101V83" /><path d="M768 83C768 78 768 78 773 78h79C857 78 857 78 857 83v18C857 106 857 106 852 106H773C768 106 768 106 768 101V83m0 0C768 78 768 78 773 78h79C857 78 857 78 857 83v18C857 106 857 106 852 106H773C768 106 768 106 768 101V83" /><rect x="768" y="78" width="89" height="28" /><text transform="matrix(1 0 0 1 794 87)" fill="#000000" font-weight="bold" stroke="none"><tspan dx="0 " x="0" y="6">WaveManager</tspan></text><path fill="#DFDFDF" stroke="none" d="M563 121C563 116 563 116 568 116h95C668 116 668 116 668 121v18C668 144 668 144 663 144H568C563 144 563 144 563 139V121" /><path fill="#FEFAF7" stroke="none" d="M560 118C560 113 560 113 565 113h95C665 113 665 113 665 118v18C665 141 665 141 660 141H565C560 141 560 141 560 136V118" /><path d="M560 118C560 113 560 113 565 113h95C665 113 665 113 665 118v18C665 141 665 141 660 141H565C560 141 560 141 560 136V118m0 0C560 113 560 113 565 113h95C665 113 665 113 665 118v18C665 141 665 141 660 141H565C560 141 560 141 560 136V118" /><rect x="560" y="113" width="105" height="28" /><text transform="matrix(1 0 0 1 591 122)" fill="#000000" font-weight="bold" stroke="none"><tspan dx="0 " x="0" y="6">PlayerMovement</tspan></text><path fill="#DFDFDF" stroke="none" d="M563 165C563 160 563 160 568 160h95C668 160 668 160 668 165v18C668 188 668 188 663 188H568C563 188 563 188 563 183V165" /><path fill="#FEFAF7" stroke="none" d="M560 162C560 157 560 157 565 157h95C665 157 665 157 665 162v18C665 185 665 185 660 185H565C560 185 560 185 560 180V162" /><path d="M560 162C560 157 560 157 565 157h95C665 157 665 157 665 162v18C665 185 665 185 660 185H565C560 185 560 185 560 180V162m0 0C560 157 560 157 565 157h95C665 157 665 157 665 162v18C665 185 665 185 660 185H565C560 185 560 185 560 180V162" /><rect x="560" y="157" width="105" height="28" /><text transform="matrix(1 0 0 1 594 166)" fill="#000000" font-weight="bold" stroke="none"><tspan dx="0 " x="0" y="6">PlayerWeapon</tspan></text><path fill="#DFDFDF" stroke="none" d="M563 214C563 209 563 209 568 209h95C668 209 668 209 668 214v18C668 237 668 237 663 237H568C563 237 563 237 563 232V214" /><path fill="#FEFAF7" stroke="none" d="M560 211C560 206 560 206 565 206h95C665 206 665 206 665 211v18C665 234 665 234 660 234H565C560 234 560 234 560 229V211" /><path d="M560 211C560 206 560 206 565 206h95C665 206 665 206 665 211v18C665 234 665 234 660 234H565C560 234 560 234 560 229V211m0 0C560 206 560 206 565 206h95C665 206 665 206 665 211v18C665 234 665 234 660 234H565C560 234 560 234 560 229V211" /><rect x="560" y="206" width="105" height="28" /><text transform="matrix(1 0 0 1 590 215)" fill="#000000" font-weight="bold" stroke="none"><tspan dx="0 " x="0" y="6">EnemyMovement</tspan></text><path fill="#DFDFDF" stroke="none" d="M563 261C563 256 563 256 568 256h95C668 256 668 256 668 261v18C668 284 668 284 663 284H568C563 284 563 284 563 279V261" /><path fill="#FEFAF7" stroke="none" d="M560 258C560 253 560 253 565 253h95C665 253 665 253 665 258v18C665 281 665 281 660 281H565C560 281 560 281 560 276V258" /><path d="M560 258C560 253 560 253 565 253h95C665 253 665 253 665 258v18C665 281 665 281 660 281H565C560 281 560 281 560 276V258m0 0C560 253 560 253 565 253h95C665 253 665 253 665 258v18C665 281 665 281 660 281H565C560 281 560 281 560 276V258" /><rect x="560" y="253" width="105" height="28" /><text transform="matrix(1 0 0 1 593 262)" fill="#000000" font-weight="bold" stroke="none"><tspan dx="0 " x="0" y="6">EnemyWeapon</tspan></text><path fill="#DFDFDF" stroke="none" d="M563 305C563 300 563 300 568 300h95C668 300 668 300 668 305v18C668 328 668 328 663 328H568C563 328 563 328 563 323V305" /><path fill="#FEFAF7" stroke="none" d="M560 302C560 297 560 297 565 297h95C665 297 665 297 665 302v18C665 325 665 325 660 325H565C560 325 560 325 560 320V302" /><path d="M560 302C560 297 560 297 565 297h95C665 297 665 297 665 302v18C665 325 665 325 660 325H565C560 325 560 325 560 320V302m0 0C560 297 560 297 565 297h95C665 297 665 297 665 302v18C665 325 665 325 660 325H565C560 325 560 325 560 320V302" /><rect x="560" y="297" width="105" height="28" /><text transform="matrix(1 0 0 1 587 306)" fill="#000000" font-weight="bold" stroke="none"><tspan dx="0 " x="0" y="6">P</tspan><tspan dx="0 " x="3.5" y="6">r</tspan><tspan dx="0 " x="5.5" y="6">o</tspan><tspan dx="0 " x="9" y="6">j</tspan><tspan dx="0 " x="10.5" y="6">e</tspan><tspan dx="0 " x="13.75" y="6">c</tspan><tspan dx="0 0 " x="16.25" y="6">ti</tspan><tspan dx="0 " x="19.75" y="6">l</tspan><tspan dx="0 " x="21.25" y="6">e</tspan><tspan dx="0 " x="24.5" y="6">M</tspan><tspan dx="0 " x="30" y="6">o</tspan><tspan dx="0 " x="33.25" y="6">v</tspan><tspan dx="0 " x="36" y="6">e</tspan><tspan dx="0 " x="39" y="6">m</tspan><tspan dx="0 " x="43.75" y="6">e</tspan><tspan dx="0 " x="46.75" y="6">n</tspan><tspan dx="0 " x="50" y="6">t</tspan></text><path fill="#DFDFDF" stroke="none" d="M751 179C751 174 751 174 756 174h79C840 174 840 174 840 179v18C840 202 840 202 835 202H756C751 202 751 202 751 197V179" /><path fill="#FEFAF7" stroke="none" d="M748 176C748 171 748 171 753 171h79C837 171 837 171 837 176v18C837 199 837 199 832 199H753C748 199 748 199 748 194V176" /><path d="M748 176C748 171 748 171 753 171h79C837 171 837 171 837 176v18C837 199 837 199 832 199H753C748 199 748 199 748 194V176m0 0C748 171 748 171 753 171h79C837 171 837 171 837 176v18C837 199 837 199 832 199H753C748 199 748 199 748 194V176" /><rect x="748" y="171" width="89" height="28" /><text transform="matrix(1 0 0 1 779 180)" fill="#000000" font-weight="bold" stroke="none"><tspan dx="0 " x="0" y="6">Movement</tspan></text><path fill="#DFDFDF" stroke="none" d="M751 233C751 228 751 228 756 228h79C840 228 840 228 840 233v18C840 256 840 256 835 256H756C751 256 751 256 751 251V233" /><path fill="#FEFAF7" stroke="none" d="M748 230C748 225 748 225 753 225h79C837 225 837 225 837 230v18C837 253 837 253 832 253H753C748 253 748 253 748 248V230" /><path d="M748 230C748 225 748 225 753 225h79C837 225 837 225 837 230v18C837 253 837 253 832 253H753C748 253 748 253 748 248V230m0 0C748 225 748 225 753 225h79C837 225 837 225 837 230v18C837 253 837 253 832 253H753C748 253 748 253 748 248V230" /><rect x="748" y="225" width="89" height="28" /><text transform="matrix(1 0 0 1 782 234)" fill="#000000" font-weight="bold" stroke="none"><tspan dx="0 " x="0" y="6">Weapon</tspan></text><path fill="#DFDFDF" stroke="none" d="M59 160C59 155 59 155 64 155h79C148 155 148 155 148 160v22C148 187 148 187 143 187H64C59 187 59 187 59 182V160" /><path fill="#FBF9C6" stroke="none" d="M56 157C56 152 56 152 61 152h79C145 152 145 152 145 157v22C145 184 145 184 140 184H61C56 184 56 184 56 179V157" /><path d="M56 157C56 152 56 152 61 152h79C145 152 145 152 145 157v22C145 184 145 184 140 184H61C56 184 56 184 56 179V157m0 0C56 152 56 152 61 152h79C145 152 145 152 145 157v22C145 184 145 184 140 184H61C56 184 56 184 56 179V157" /><rect x="56" y="152" width="89" height="32" /><text transform="matrix(1 0 0 1 87 158)" fill="#000000" stroke="none"><tspan dx="0 " x="0" y="6">«</tspan><tspan dx="0 " x="3.75" y="6">p</tspan><tspan dx="0 " x="7.5" y="6">r</tspan><tspan dx="0 " x="9.75" y="6">i</tspan><tspan dx="0 " x="11.5" y="6">m</tspan><tspan dx="0 " x="16.75" y="6">i</tspan><tspan dx="0 0 " x="18.5" y="6">ti</tspan><tspan dx="0 " x="22.25" y="6">v</tspan><tspan dx="0 " x="25.25" y="6">e</tspan><tspan dx="0 " x="28.5" y="6">»</tspan></text><text transform="matrix(1 0 0 1 81 166)" fill="#000000" font-weight="bold" stroke="none"><tspan dx="0 " x="0" y="6">DeathMsgType</tspan></text><path fill="#DFDFDF" stroke="none" d="M59 197C59 192 59 192 64 192h79C148 192 148 192 148 197v22C148 224 148 224 143 224H64C59 224 59 224 59 219V197" /><path fill="#FBF9C6" stroke="none" d="M56 194C56 189 56 189 61 189h79C145 189 145 189 145 194v22C145 221 145 221 140 221H61C56 221 56 221 56 216V194" /><path d="M56 194C56 189 56 189 61 189h79C145 189 145 189 145 194v22C145 221 145 221 140 221H61C56 221 56 221 56 216V194m0 0C56 189 56 189 61 189h79C145 189 145 189 145 194v22C145 221 145 221 140 221H61C56 221 56 221 56 216V194" /><rect x="56" y="189" width="89" height="32" /><text transform="matrix(1 0 0 1 87 195)" fill="#000000" stroke="none"><tspan dx="0 " x="0" y="6">«</tspan><tspan dx="0 " x="3.75" y="6">p</tspan><tspan dx="0 " x="7.5" y="6">r</tspan><tspan dx="0 " x="9.75" y="6">i</tspan><tspan dx="0 " x="11.5" y="6">m</tspan><tspan dx="0 " x="16.75" y="6">i</tspan><tspan dx="0 0 " x="18.5" y="6">ti</tspan><tspan dx="0 " x="22.25" y="6">v</tspan><tspan dx="0 " x="25.25" y="6">e</tspan><tspan dx="0 " x="28.5" y="6">»</tspan></text><text transform="matrix(1 0 0 1 79 203)" fill="#000000" font-weight="bold" stroke="none"><tspan dx="0 " x="0" y="6">A</tspan><tspan dx="0 0 " x="4" y="6">tt</tspan><tspan dx="0 " x="8" y="6">a</tspan><tspan dx="0 " x="11.25" y="6">c</tspan><tspan dx="0 " x="13.75" y="6">k</tspan><tspan dx="0 " x="16.5" y="6">F</tspan><tspan dx="0 " x="19.25" y="6">r</tspan><tspan dx="0 " x="21.25" y="6">e</tspan><tspan dx="0 " x="24.5" y="6">q</tspan><tspan dx="0 " x="28" y="6">u</tspan><tspan dx="0 " x="31.5" y="6">e</tspan><tspan dx="0 " x="34.5" y="6">n</tspan><tspan dx="0 " x="37.75" y="6">c</tspan><tspan dx="0 " x="40.25" y="6">y</tspan></text><path fill="#DFDFDF" stroke="none" d="M167 197C167 192 167 192 172 192h79C256 192 256 192 256 197v22C256 224 256 224 251 224H172C167 224 167 224 167 219V197" /><path fill="#FBF9C6" stroke="none" d="M164 194C164 189 164 189 169 189h79C253 189 253 189 253 194v22C253 221 253 221 248 221H169C164 221 164 221 164 216V194" /><path d="M164 194C164 189 164 189 169 189h79C253 189 253 189 253 194v22C253 221 253 221 248 221H169C164 221 164 221 164 216V194m0 0C164 189 164 189 169 189h79C253 189 253 189 253 194v22C253 221 253 221 248 221H169C164 221 164 221 164 216V194" /><rect x="164" y="189" width="89" height="32" /><text transform="matrix(1 0 0 1 195 195)" fill="#000000" stroke="none"><tspan dx="0 " x="0" y="6">«</tspan><tspan dx="0 " x="3.75" y="6">p</tspan><tspan dx="0 " x="7.5" y="6">r</tspan><tspan dx="0 " x="9.75" y="6">i</tspan><tspan dx="0 " x="11.5" y="6">m</tspan><tspan dx="0 " x="16.75" y="6">i</tspan><tspan dx="0 0 " x="18.5" y="6">ti</tspan><tspan dx="0 " x="22.25" y="6">v</tspan><tspan dx="0 " x="25.25" y="6">e</tspan><tspan dx="0 " x="28.5" y="6">»</tspan></text><text transform="matrix(1 0 0 1 190 203)" fill="#000000" font-weight="bold" stroke="none"><tspan dx="0 " x="0" y="6">CharacterType</tspan></text><path fill="#DFDFDF" stroke="none" d="M167 157C167 152 167 152 172 152h79C256 152 256 152 256 157v22C256 184 256 184 251 184H172C167 184 167 184 167 179V157" /><path fill="#FBF9C6" stroke="none" d="M164 154C164 149 164 149 169 149h79C253 149 253 149 253 154v22C253 181 253 181 248 181H169C164 181 164 181 164 176V154" /><path d="M164 154C164 149 164 149 169 149h79C253 149 253 149 253 154v22C253 181 253 181 248 181H169C164 181 164 181 164 176V154m0 0C164 149 164 149 169 149h79C253 149 253 149 253 154v22C253 181 253 181 248 181H169C164 181 164 181 164 176V154" /><rect x="164" y="149" width="89" height="32" /><text transform="matrix(1 0 0 1 195 155)" fill="#000000" stroke="none"><tspan dx="0 " x="0" y="6">«</tspan><tspan dx="0 " x="3.75" y="6">p</tspan><tspan dx="0 " x="7.5" y="6">r</tspan><tspan dx="0 " x="9.75" y="6">i</tspan><tspan dx="0 " x="11.5" y="6">m</tspan><tspan dx="0 " x="16.75" y="6">i</tspan><tspan dx="0 0 " x="18.5" y="6">ti</tspan><tspan dx="0 " x="22.25" y="6">v</tspan><tspan dx="0 " x="25.25" y="6">e</tspan><tspan dx="0 " x="28.5" y="6">»</tspan></text><text transform="matrix(1 0 0 1 205 163)" fill="#000000" font-weight="bold" stroke="none"><tspan dx="0 " x="0" y="6">HP</tspan></text><path fill="#DFDFDF" stroke="none" d="M59 327C59 322 59 322 64 322h79C148 322 148 322 148 327v22C148 354 148 354 143 354H64C59 354 59 354 59 349V327" /><path fill="#FBF9C6" stroke="none" d="M56 324C56 319 56 319 61 319h79C145 319 145 319 145 324v22C145 351 145 351 140 351H61C56 351 56 351 56 346V324" /><path d="M56 324C56 319 56 319 61 319h79C145 319 145 319 145 324v22C145 351 145 351 140 351H61C56 351 56 351 56 346V324m0 0C56 319 56 319 61 319h79C145 319 145 319 145 324v22C145 351 145 351 140 351H61C56 351 56 351 56 346V324" /><rect x="56" y="319" width="89" height="32" /><text transform="matrix(1 0 0 1 87 325)" fill="#000000" stroke="none"><tspan dx="0 " x="0" y="6">«</tspan><tspan dx="0 " x="3.75" y="6">p</tspan><tspan dx="0 " x="7.5" y="6">r</tspan><tspan dx="0 " x="9.75" y="6">i</tspan><tspan dx="0 " x="11.5" y="6">m</tspan><tspan dx="0 " x="16.75" y="6">i</tspan><tspan dx="0 0 " x="18.5" y="6">ti</tspan><tspan dx="0 " x="22.25" y="6">v</tspan><tspan dx="0 " x="25.25" y="6">e</tspan><tspan dx="0 " x="28.5" y="6">»</tspan></text><text transform="matrix(1 0 0 1 79 333)" fill="#000000" font-weight="bold" stroke="none"><tspan dx="0 " x="0" y="6">M</tspan><tspan dx="0 " x="5.5" y="6">a</tspan><tspan dx="0 " x="8.75" y="6">x</tspan><tspan dx="0 " x="11.5" y="6">A</tspan><tspan dx="0 " x="15.5" y="6">c</tspan><tspan dx="0 " x="18" y="6">c</tspan><tspan dx="0 " x="20.5" y="6">e</tspan><tspan dx="0 " x="23.5" y="6">l</tspan><tspan dx="0 " x="25" y="6">e</tspan><tspan dx="0 " x="28" y="6">r</tspan><tspan dx="0 " x="30" y="6">a</tspan><tspan dx="0 0 " x="33" y="6">ti</tspan><tspan dx="0 " x="36.5" y="6">o</tspan><tspan dx="0 " x="39.75" y="6">n</tspan></text><path fill="#DFDFDF" stroke="none" d="M167 335C167 330 167 330 172 330h79C256 330 256 330 256 335v22C256 362 256 362 251 362H172C167 362 167 362 167 357V335" /><path fill="#FBF9C6" stroke="none" d="M164 332C164 327 164 327 169 327h79C253 327 253 327 253 332v22C253 359 253 359 248 359H169C164 359 164 359 164 354V332" /><path d="M164 332C164 327 164 327 169 327h79C253 327 253 327 253 332v22C253 359 253 359 248 359H169C164 359 164 359 164 354V332m0 0C164 327 164 327 169 327h79C253 327 253 327 253 332v22C253 359 253 359 248 359H169C164 359 164 359 164 354V332" /><rect x="164" y="327" width="89" height="32" /><text transform="matrix(1 0 0 1 195 333)" fill="#000000" stroke="none"><tspan dx="0 " x="0" y="6">«</tspan><tspan dx="0 " x="3.75" y="6">p</tspan><tspan dx="0 " x="7.5" y="6">r</tspan><tspan dx="0 " x="9.75" y="6">i</tspan><tspan dx="0 " x="11.5" y="6">m</tspan><tspan dx="0 " x="16.75" y="6">i</tspan><tspan dx="0 0 " x="18.5" y="6">ti</tspan><tspan dx="0 " x="22.25" y="6">v</tspan><tspan dx="0 " x="25.25" y="6">e</tspan><tspan dx="0 " x="28.5" y="6">»</tspan></text><text transform="matrix(1 0 0 1 193 341)" fill="#000000" font-weight="bold" stroke="none"><tspan dx="0 " x="0" y="6">MaxVelocity</tspan></text><path fill="#DFDFDF" stroke="none" d="M167 242C167 237 167 237 172 237h79C256 237 256 237 256 242v22C256 269 256 269 251 269H172C167 269 167 269 167 264V242" /><path fill="#FBF9C6" stroke="none" d="M164 239C164 234 164 234 169 234h79C253 234 253 234 253 239v22C253 266 253 266 248 266H169C164 266 164 266 164 261V239" /><path d="M164 239C164 234 164 234 169 234h79C253 234 253 234 253 239v22C253 266 253 266 248 266H169C164 266 164 266 164 261V239m0 0C164 234 164 234 169 234h79C253 234 253 234 253 239v22C253 266 253 266 248 266H169C164 266 164 266 164 261V239" /><rect x="164" y="234" width="89" height="32" /><text transform="matrix(1 0 0 1 195 240)" fill="#000000" stroke="none"><tspan dx="0 " x="0" y="6">«</tspan><tspan dx="0 " x="3.75" y="6">p</tspan><tspan dx="0 " x="7.5" y="6">r</tspan><tspan dx="0 " x="9.75" y="6">i</tspan><tspan dx="0 " x="11.5" y="6">m</tspan><tspan dx="0 " x="16.75" y="6">i</tspan><tspan dx="0 0 " x="18.5" y="6">ti</tspan><tspan dx="0 " x="22.25" y="6">v</tspan><tspan dx="0 " x="25.25" y="6">e</tspan><tspan dx="0 " x="28.5" y="6">»</tspan></text><text transform="matrix(1 0 0 1 190 248)" fill="#000000" font-weight="bold" stroke="none"><tspan dx="0 " x="0" y="6">P</tspan><tspan dx="0 " x="3.5" y="6">r</tspan><tspan dx="0 " x="5.5" y="6">o</tspan><tspan dx="0 " x="8.75" y="6">j</tspan><tspan dx="0 " x="10.25" y="6">e</tspan><tspan dx="0 " x="13.25" y="6">c</tspan><tspan dx="0 0 " x="15.75" y="6">ti</tspan><tspan dx="0 " x="19.25" y="6">l</tspan><tspan dx="0 " x="20.75" y="6">e</tspan><tspan dx="0 " x="23.75" y="6">C</tspan><tspan dx="0 " x="27" y="6">o</tspan><tspan dx="0 " x="30.25" y="6">l</tspan><tspan dx="0 " x="31.75" y="6">o</tspan><tspan dx="0 " x="35" y="6">r</tspan></text><path fill="#DFDFDF" stroke="none" d="M49 243C49 238 49 238 54 238h99C158 238 158 238 158 243v22C158 270 158 270 153 270H54C49 270 49 270 49 265V243" /><path fill="#FBF9C6" stroke="none" d="M46 240C46 235 46 235 51 235h99C155 235 155 235 155 240v22C155 267 155 267 150 267H51C46 267 46 267 46 262V240" /><path d="M46 240C46 235 46 235 51 235h99C155 235 155 235 155 240v22C155 267 155 267 150 267H51C46 267 46 267 46 262V240m0 0C46 235 46 235 51 235h99C155 235 155 235 155 240v22C155 267 155 267 150 267H51C46 267 46 267 46 262V240" /><rect x="46" y="235" width="109" height="32" /><text transform="matrix(1 0 0 1 87 241)" fill="#000000" stroke="none"><tspan dx="0 " x="0" y="6">«</tspan><tspan dx="0 " x="3.75" y="6">p</tspan><tspan dx="0 " x="7.5" y="6">r</tspan><tspan dx="0 " x="9.75" y="6">i</tspan><tspan dx="0 " x="11.5" y="6">m</tspan><tspan dx="0 " x="16.75" y="6">i</tspan><tspan dx="0 0 " x="18.5" y="6">ti</tspan><tspan dx="0 " x="22.25" y="6">v</tspan><tspan dx="0 " x="25.25" y="6">e</tspan><tspan dx="0 " x="28.5" y="6">»</tspan></text><text transform="matrix(1 0 0 1 73 249)" fill="#000000" font-weight="bold" stroke="none"><tspan dx="0 " x="0" y="6">P</tspan><tspan dx="0 " x="3.5" y="6">r</tspan><tspan dx="0 " x="5.5" y="6">o</tspan><tspan dx="0 " x="9" y="6">j</tspan><tspan dx="0 " x="10.5" y="6">e</tspan><tspan dx="0 " x="13.75" y="6">c</tspan><tspan dx="0 0 " x="16.25" y="6">ti</tspan><tspan dx="0 " x="19.75" y="6">l</tspan><tspan dx="0 " x="21.25" y="6">e</tspan><tspan dx="0 " x="24.5" y="6">M</tspan><tspan dx="0 " x="30" y="6">a</tspan><tspan dx="0 " x="33.25" y="6">x</tspan><tspan dx="0 " x="36" y="6">V</tspan><tspan dx="0 " x="39.5" y="6">e</tspan><tspan dx="0 " x="42.5" y="6">l</tspan><tspan dx="0 " x="44" y="6">o</tspan><tspan dx="0 " x="47.25" y="6">c</tspan><tspan dx="0 " x="49.75" y="6">i</tspan><tspan dx="0 " x="51.25" y="6">t</tspan><tspan dx="0 " x="53.25" y="6">y</tspan></text><path fill="#DFDFDF" stroke="none" d="M167 285C167 280 167 280 172 280h79C256 280 256 280 256 285v22C256 312 256 312 251 312H172C167 312 167 312 167 307V285" /><path fill="#FBF9C6" stroke="none" d="M164 282C164 277 164 277 169 277h79C253 277 253 277 253 282v22C253 309 253 309 248 309H169C164 309 164 309 164 304V282" /><path d="M164 282C164 277 164 277 169 277h79C253 277 253 277 253 282v22C253 309 253 309 248 309H169C164 309 164 309 164 304V282m0 0C164 277 164 277 169 277h79C253 277 253 277 253 282v22C253 309 253 309 248 309H169C164 309 164 309 164 304V282" /><rect x="164" y="277" width="89" height="32" /><text transform="matrix(1 0 0 1 195 283)" fill="#000000" stroke="none"><tspan dx="0 " x="0" y="6">«</tspan><tspan dx="0 " x="3.75" y="6">p</tspan><tspan dx="0 " x="7.5" y="6">r</tspan><tspan dx="0 " x="9.75" y="6">i</tspan><tspan dx="0 " x="11.5" y="6">m</tspan><tspan dx="0 " x="16.75" y="6">i</tspan><tspan dx="0 0 " x="18.5" y="6">ti</tspan><tspan dx="0 " x="22.25" y="6">v</tspan><tspan dx="0 " x="25.25" y="6">e</tspan><tspan dx="0 " x="28.5" y="6">»</tspan></text><text transform="matrix(1 0 0 1 202 291)" fill="#000000" font-weight="bold" stroke="none"><tspan dx="0 " x="0" y="6">Score</tspan></text><path fill="#DFDFDF" stroke="none" d="M59 283C59 278 59 278 64 278h79C148 278 148 278 148 283v22C148 310 148 310 143 310H64C59 310 59 310 59 305V283" /><path fill="#FBF9C6" stroke="none" d="M56 280C56 275 56 275 61 275h79C145 275 145 275 145 280v22C145 307 145 307 140 307H61C56 307 56 307 56 302V280" /><path d="M56 280C56 275 56 275 61 275h79C145 275 145 275 145 280v22C145 307 145 307 140 307H61C56 307 56 307 56 302V280m0 0C56 275 56 275 61 275h79C145 275 145 275 145 280v22C145 307 145 307 140 307H61C56 307 56 307 56 302V280" /><rect x="56" y="275" width="89" height="32" /><text transform="matrix(1 0 0 1 87 281)" fill="#000000" stroke="none"><tspan dx="0 " x="0" y="6">«</tspan><tspan dx="0 " x="3.75" y="6">p</tspan><tspan dx="0 " x="7.5" y="6">r</tspan><tspan dx="0 " x="9.75" y="6">i</tspan><tspan dx="0 " x="11.5" y="6">m</tspan><tspan dx="0 " x="16.75" y="6">i</tspan><tspan dx="0 0 " x="18.5" y="6">ti</tspan><tspan dx="0 " x="22.25" y="6">v</tspan><tspan dx="0 " x="25.25" y="6">e</tspan><tspan dx="0 " x="28.5" y="6">»</tspan></text><text transform="matrix(1 0 0 1 94 289)" fill="#000000" font-weight="bold" stroke="none"><tspan dx="0 " x="0" y="6">State</tspan></text><path fill="#DFDFDF" stroke="none" d="M170 473C170 468 170 468 175 468h89C269 468 269 468 269 473v22C269 500 269 500 264 500H175C170 500 170 500 170 495V473" /><path fill="#FBF9C6" stroke="none" d="M167 470C167 465 167 465 172 465h89C266 465 266 465 266 470v22C266 497 266 497 261 497H172C167 497 167 497 167 492V470" /><path d="M167 470C167 465 167 465 172 465h89C266 465 266 465 266 470v22C266 497 266 497 261 497H172C167 497 167 497 167 492V470m0 0C167 465 167 465 172 465h89C266 465 266 465 266 470v22C266 497 266 497 261 497H172C167 497 167 497 167 492V470" /><rect x="167" y="465" width="99" height="32" /><text transform="matrix(1 0 0 1 203 471)" fill="#000000" stroke="none"><tspan dx="0 " x="0" y="6">«</tspan><tspan dx="0 " x="3.75" y="6">p</tspan><tspan dx="0 " x="7.5" y="6">r</tspan><tspan dx="0 " x="9.75" y="6">i</tspan><tspan dx="0 " x="11.5" y="6">m</tspan><tspan dx="0 " x="16.75" y="6">i</tspan><tspan dx="0 0 " x="18.5" y="6">ti</tspan><tspan dx="0 " x="22.25" y="6">v</tspan><tspan dx="0 " x="25.25" y="6">e</tspan><tspan dx="0 " x="28.5" y="6">»</tspan></text><text transform="matrix(1 0 0 1 191 479)" fill="#000000" font-weight="bold" stroke="none"><tspan dx="0 " x="0" y="6">WallRepulsiveForce</tspan></text><path fill="#DFDFDF" stroke="none" d="M51 383C51 378 51 378 56 378h79C140 378 140 378 140 383v22C140 410 140 410 135 410H56C51 410 51 410 51 405V383" /><path fill="#FBF9C6" stroke="none" d="M48 380C48 375 48 375 53 375h79C137 375 137 375 137 380v22C137 407 137 407 132 407H53C48 407 48 407 48 402V380" /><path d="M48 380C48 375 48 375 53 375h79C137 375 137 375 137 380v22C137 407 137 407 132 407H53C48 407 48 407 48 402V380m0 0C48 375 48 375 53 375h79C137 375 137 375 137 380v22C137 407 137 407 132 407H53C48 407 48 407 48 402V380" /><rect x="48" y="375" width="89" height="32" /><text transform="matrix(1 0 0 1 79 381)" fill="#000000" stroke="none"><tspan dx="0 " x="0" y="6">«</tspan><tspan dx="0 " x="3.75" y="6">p</tspan><tspan dx="0 " x="7.5" y="6">r</tspan><tspan dx="0 " x="9.75" y="6">i</tspan><tspan dx="0 " x="11.5" y="6">m</tspan><tspan dx="0 " x="16.75" y="6">i</tspan><tspan dx="0 0 " x="18.5" y="6">ti</tspan><tspan dx="0 " x="22.25" y="6">v</tspan><tspan dx="0 " x="25.25" y="6">e</tspan><tspan dx="0 " x="28.5" y="6">»</tspan></text><text transform="matrix(1 0 0 1 77 389)" fill="#000000" font-weight="bold" stroke="none"><tspan dx="0 " x="0" y="6">MaxVelocity</tspan></text><path fill="#DFDFDF" stroke="none" d="M54 425C54 420 54 420 59 420h79C143 420 143 420 143 425v22C143 452 143 452 138 452H59C54 452 54 452 54 447V425" /><path fill="#FBF9C6" stroke="none" d="M51 422C51 417 51 417 56 417h79C140 417 140 417 140 422v22C140 449 140 449 135 449H56C51 449 51 449 51 444V422" /><path d="M51 422C51 417 51 417 56 417h79C140 417 140 417 140 422v22C140 449 140 449 135 449H56C51 449 51 449 51 444V422m0 0C51 417 51 417 56 417h79C140 417 140 417 140 422v22C140 449 140 449 135 449H56C51 449 51 449 51 444V422" /><rect x="51" y="417" width="89" height="32" /><text transform="matrix(1 0 0 1 82 423)" fill="#000000" stroke="none"><tspan dx="0 " x="0" y="6">«</tspan><tspan dx="0 " x="3.75" y="6">p</tspan><tspan dx="0 " x="7.5" y="6">r</tspan><tspan dx="0 " x="9.75" y="6">i</tspan><tspan dx="0 " x="11.5" y="6">m</tspan><tspan dx="0 " x="16.75" y="6">i</tspan><tspan dx="0 0 " x="18.5" y="6">ti</tspan><tspan dx="0 " x="22.25" y="6">v</tspan><tspan dx="0 " x="25.25" y="6">e</tspan><tspan dx="0 " x="28.5" y="6">»</tspan></text><text transform="matrix(1 0 0 1 74 431)" fill="#000000" font-weight="bold" stroke="none"><tspan dx="0 " x="0" y="6">M</tspan><tspan dx="0 " x="5.5" y="6">a</tspan><tspan dx="0 " x="8.75" y="6">x</tspan><tspan dx="0 " x="11.5" y="6">A</tspan><tspan dx="0 " x="15.5" y="6">c</tspan><tspan dx="0 " x="18" y="6">c</tspan><tspan dx="0 " x="20.5" y="6">e</tspan><tspan dx="0 " x="23.5" y="6">l</tspan><tspan dx="0 " x="25" y="6">e</tspan><tspan dx="0 " x="28" y="6">r</tspan><tspan dx="0 " x="30" y="6">a</tspan><tspan dx="0 0 " x="33" y="6">ti</tspan><tspan dx="0 " x="36.5" y="6">o</tspan><tspan dx="0 " x="39.75" y="6">n</tspan></text><path fill="#DFDFDF" stroke="none" d="M46 470C46 465 46 465 51 465h94C150 465 150 465 150 470v22C150 497 150 497 145 497H51C46 497 46 497 46 492V470" /><path fill="#FBF9C6" stroke="none" d="M43 467C43 462 43 462 48 462h94C147 462 147 462 147 467v22C147 494 147 494 142 494H48C43 494 43 494 43 489V467" /><path d="M43 467C43 462 43 462 48 462h94C147 462 147 462 147 467v22C147 494 147 494 142 494H48C43 494 43 494 43 489V467m0 0C43 462 43 462 48 462h94C147 462 147 462 147 467v22C147 494 147 494 142 494H48C43 494 43 494 43 489V467" /><rect x="43" y="462" width="104" height="32" /><text transform="matrix(1 0 0 1 82 468)" fill="#000000" stroke="none"><tspan dx="0 " x="0" y="6">«</tspan><tspan dx="0 " x="3.75" y="6">p</tspan><tspan dx="0 " x="7.5" y="6">r</tspan><tspan dx="0 " x="9.75" y="6">i</tspan><tspan dx="0 " x="11.5" y="6">m</tspan><tspan dx="0 " x="16.75" y="6">i</tspan><tspan dx="0 0 " x="18.5" y="6">ti</tspan><tspan dx="0 " x="22.25" y="6">v</tspan><tspan dx="0 " x="25.25" y="6">e</tspan><tspan dx="0 " x="28.5" y="6">»</tspan></text><text transform="matrix(1 0 0 1 68 476)" fill="#000000" font-weight="bold" stroke="none"><tspan dx="0 " x="0" y="6">P</tspan><tspan dx="0 " x="3.5" y="6">r</tspan><tspan dx="0 " x="5.5" y="6">o</tspan><tspan dx="0 " x="9" y="6">j</tspan><tspan dx="0 " x="10.5" y="6">e</tspan><tspan dx="0 " x="13.75" y="6">c</tspan><tspan dx="0 0 " x="16.25" y="6">ti</tspan><tspan dx="0 " x="19.75" y="6">l</tspan><tspan dx="0 " x="21.25" y="6">e</tspan><tspan dx="0 " x="24.5" y="6">O</tspan><tspan dx="0 " x="28.75" y="6">w</tspan><tspan dx="0 " x="33.5" y="6">n</tspan><tspan dx="0 " x="37" y="6">e</tspan><tspan dx="0 " x="40" y="6">r</tspan><tspan dx="0 " x="42" y="6">T</tspan><tspan dx="0 " x="45" y="6">y</tspan><tspan dx="0 " x="47.75" y="6">p</tspan><tspan dx="0 " x="51" y="6">e</tspan></text><path fill="#DFDFDF" stroke="none" d="M382 439C382 434 382 434 387 434h79C471 434 471 434 471 439v18C471 462 471 462 466 462H387C382 462 382 462 382 457V439" /><path fill="#FEFAF7" stroke="none" d="M379 436C379 431 379 431 384 431h79C468 431 468 431 468 436v18C468 459 468 459 463 459H384C379 459 379 459 379 454V436" /><path d="M379 436C379 431 379 431 384 431h79C468 431 468 431 468 436v18C468 459 468 459 463 459H384C379 459 379 459 379 454V436m0 0C379 431 379 431 384 431h79C468 431 468 431 468 436v18C468 459 468 459 463 459H384C379 459 379 459 379 454V436" /><rect x="379" y="431" width="89" height="28" /><text transform="matrix(1 0 0 1 409 440)" fill="#000000" font-weight="bold" stroke="none"><tspan dx="0 " x="0" y="6">UIElements</tspan></text><path d="M666 221h36" /><path d="M240 54V89m0 0H215" /><path d="M347 397h29m0 0l-15 6m15 -6l-15 -6" /><path d="M347 146h29m0 0l-15 6m15 -6l-15 -6" /><path d="M347 244h29m0 0l-15 6m15 -6l-15 -6" /><path d="M347 308h29m0 0l-15 6m15 -6l-15 -6" /><path d="M347 358h29m0 0l-15 6m15 -6l-15 -6" /><path d="M578 37H527m0 0V47" /><path d="M578 85H527m0 0V47" /><path d="M768 80H738m0 0V63m0 0H527" /><path d="M768 46H739m0 0V63m0 0H528m0 0V47m0 0H466" /><path d="M666 268h22m0 0V239m0 0h60" /><path fill="#FCF2E3" d="M732 245V233l16 6l-16 6" /><path d="M376 54H215" /><path d="M666 130h35m0 0v56m0 0h47" /><path fill="#FCF2E3" d="M732 192V180l16 6l-16 6" /><path d="M347 54V440m0 0h32m0 0l-15 6m15 -6l-15 -6" /><path d="M666 299h36m0 0L701.09 243.5C704.07 243.45 706.5 240.98 706.5 238C706.5 235.02 704.08 232.56 701.11 232.5M701 232l1 -46" /><path d="M560 129H527m0 0v18m0 0H466" /><path d="M560 171H526m0 0V147" /><path d="M466 243h58m0 0V221m0 0h36" /><path d="M466 244h57m0 0v25m0 0h37" /><path d="M466 301h94" /><path d="M419 162v31" /><path d="M420 230V193m0 0L351.5 192.07C351.5 192.05 351.5 192.02 351.5 192C352 189.46 349.54 187 346.5 187C343.46 187 341 189.46 341 192.5C340.5 192.02 340.5 192.04 340.5 192.07M340 192l-77 1" /><path d="M376 367L351.5 366.18C351.5 366.12 351.5 366.06 351.5 366C352 363.46 349.54 361 346.5 361C343.46 361 341 363.46 341 366.5C340.5 366.06 340.5 366.12 340.5 366.18M340 366l-24 1m0 0V479m0 0H267" /><path d="M376 319L351.5 318.18C351.5 318.12 351.5 318.06 351.5 318C352 315.46 349.54 313 346.5 313C343.46 313 341 315.46 341 318.5C340.5 318.03 340.5 318.07 340.5 318.1M340 318l-48 1" /><path d="M292 379H138" /><path d="M292 419H141" /><path d="M292 319V462m0 0H148" /><path d="M666 173l21 1m0 0L686.12 214.5C686.08 214.5 686.04 214.5 686 214.5C683.46 215 681 217.46 681 220.5C681 223.54 683.46 226 686.5 226C686.1 225.5 686.19 225.5 686.29 225.49M686 225l1 14m0 0L695.51 238.39C695.72 241.25 698.13 243.5 701 243.5C703.97 243.5 706.44 241.09 706.5 238.12M706 238l42 1" /><path fill="#FCF2E3" d="M732 245V233l16 6l-16 6" /></g></g></g></g></svg>